<svg xmlns="http://www.w3.org/2000/svg" viewBox="0 0 384 512"><!--!Font Awesome Free 6.5.2 by @fontawesome - https://fontawesome.com License - https://fontawesome.com/license/free Copyright 2024 Fonticons, Inc.--><path d="M378.3 378.5L298.4 288h30.6c9 0 17-5 20.8-13.1 3.8-8 2.6-17.3-3.3-24.1L268.4 160h28.9c9.1 0 17.3-5.4 20.9-13.6 3.5-8.1 1.9-17.6-4.2-24.1L203.7 4.8c-6-6.5-17.3-6.5-23.3 0L70.1 122.3c-6.1 6.5-7.8 16-4.2 24.1C69.4 154.7 77.6 160 86.7 160h28.9l-78.1 90.9c-5.8 6.8-7.1 16-3.3 24C38 283 45.9 288 55 288h30.6L5.7 378.5c-6 6.8-7.4 16.1-3.6 24.3 3.8 8.1 12 13.3 21 13.3H160v24.5l-30.3 48.4c-5.3 10.6 2.4 23.2 14.3 23.2h96c11.9 0 19.6-12.5 14.3-23.2L224 440.5V416h136.9c9 0 17.3-5.2 21-13.3 3.8-8.2 2.4-17.5-3.6-24.3z"/></svg>